<svg xmlns="http://www.w3.org/2000/svg" viewBox="0 0 41.3 21.48"><defs><style>.cls-1{fill:#fff;}</style></defs><title>augnex</title><g id="Layer_2" data-name="Layer 2"><g id="Layer_1-2" data-name="Layer 1"><path d="M7.6.35C6.47,3.4,5.43,6.19,4.41,9a25.28,25.28,0,0,0-1,2.86c-.24,1,.12,1.27,1.1,1,.59-.16,1.17-.34,1.86-.55v9.18a8.85,8.85,0,0,1-3.79-4.14,24.53,24.53,0,0,1-2.43-14C.52.85,1.62-.09,4.18,0,5.18,0,6.17.2,7.6.35ZM1.14,3.52C3.1,5,4.45,4.94,6,3.51A3.08,3.08,0,0,0,1.14,3.52Z"/><path d="M24,12.78a9.69,9.69,0,0,0,1.6.6c.73.14,1.15-.19,1.12-1s0-1.58,0-2.37-.41-1-1.1-1-1,.26-1,1c0,.92-.14,1.88,1.28,1.75.09,0,.19.16.31.27-1.56.66-2.34.19-2.35-1.36a3.62,3.62,0,0,1,.12-1.59c.56-1.07,1.66-.72,2.53-.6.37.05.87.74.94,1.19a20.26,20.26,0,0,1,0,3A1.13,1.13,0,0,1,26.23,14a4.8,4.8,0,0,1-1.7-.13c-.33-.11-.54-.57-.81-.88Z"/><path d="M15.64,8c-.47,1.42-.93,2.85-1.44,4.26-.1.26-.43.44-.66.66a2.59,2.59,0,0,1-.09-.94c.44-1.43.92-2.87,1.46-4.27a1.23,1.23,0,0,1,.87-.7,1.2,1.2,0,0,1,.89.67c.56,1.47,1,3,1.52,4.48.07.21-.07.49-.11.74-.22-.17-.56-.29-.64-.51-.54-1.47-1-2.95-1.53-4.43Z"/><path d="M34.67,10.46l1.5-.17c-.05-.36,0-.94-.19-1a2.49,2.49,0,0,0-1.43-.14c-.2,0-.38.53-.44.85a2.76,2.76,0,0,0,0,1.18c.1.4.33,1,.55,1.07a4.3,4.3,0,0,0,1.52-.38,4.85,4.85,0,0,0,.65-.31c0,.27.09.62,0,.79-.66.88-1.63.62-2.5.53s-1-.71-1-1.44c0-.32,0-.65,0-1,0-1.81.24-2,2.08-2,1.34,0,1.91.77,1.55,2.06-.05.15-.18.4-.28.4-.67,0-1.34,0-2,0Z"/><path d="M31.78,13a3.94,3.94,0,0,1-.33-.88,17.53,17.53,0,0,1,0-2.05c0-.76-.32-1-1-1s-1.09.18-1,1a14,14,0,0,1,0,2.15c0,.25-.27.49-.41.73-.12-.22-.33-.44-.35-.67a24.67,24.67,0,0,1,0-2.58c0-.3.18-.79.35-.83a8,8,0,0,1,2.48-.23c.79.1.8.89.78,1.56,0,.89,0,1.79,0,2.68Z"/><path d="M22.67,8.5c0,1.15,0,2.29,0,3.43,0,.22-.19.6-.33.62a8,8,0,0,1-2.57.14c-.32-.06-.6-.94-.68-1.48a10.67,10.67,0,0,1,0-2.26c0-.17.27-.32.41-.48.12.15.32.31.33.47,0,.83.05,1.65,0,2.48s.39.91,1,.9,1.08-.09,1.05-.86,0-1.45,0-2.16a3.53,3.53,0,0,1,.32-.91Z"/><path d="M38.91,10.66l-1.31-2c.53-.12.63-.05,1.84,1.14l1.39-1.48.36.28a6.14,6.14,0,0,1-.66,1.11,1.14,1.14,0,0,0,0,1.84,8.83,8.83,0,0,1,.74,1c-.62.28-.62.28-1.9-1.23-.33.43-.62.87-1,1.25-.13.14-.41.16-.62.23,0-.22-.06-.48,0-.65C38.17,11.68,38.54,11.19,38.91,10.66Z"/><path class="cls-1" d="M1.14,3.52A3.08,3.08,0,0,1,6,3.51C4.45,4.94,3.1,5,1.14,3.52Zm3.74-.14c-.61-.39-1-.81-1.29-.78s-.59.52-.88.81c.31.31.6.79,1,.86S4.3,3.82,4.88,3.38Z"/><path d="M4.88,3.38c-.58.44-.94.94-1.21.89s-.65-.55-1-.86c.29-.29.56-.77.88-.81S4.27,3,4.88,3.38Z"/></g></g></svg>