<svg xmlns="http://www.w3.org/2000/svg" viewBox="0 0 34.16 38.67"><defs><style>.cls-1{fill:#47a4d4;}.cls-2{fill:#ef5c2d;}.cls-3{fill:#ee5c2d;}.cls-4{fill:#132e58;}.cls-5{fill:#132e59;}.cls-6{fill:#49a4d2;}.cls-7{fill:#49a4d1;}.cls-8{fill:#46a5d5;}.cls-9{fill:#ed5d30;}.cls-10{fill:#22354f;}.cls-11{fill:#1f3054;}.cls-12{fill:#3b4f6e;}.cls-13{fill:#5fa3c5;}.cls-14{fill:#2f3e60;}</style></defs><title>csi</title><g id="Layer_2" data-name="Layer 2"><g id="Layer_1-2" data-name="Layer 1"><path class="cls-1" d="M16.7,31.44a22.15,22.15,0,0,1-2.82-.1.76.76,0,0,1-.74-.77.72.72,0,0,1,.82-.7,36.31,36.31,0,0,0,4.3.08,4.13,4.13,0,0,0,.93-.09,1.12,1.12,0,0,0,1-1.33,4.27,4.27,0,0,0-1.64-2.87,6.31,6.31,0,0,0-1.91-.85A13.46,13.46,0,0,1,14.46,24a6.39,6.39,0,0,1-2.34-2.19A9,9,0,0,1,10.53,16a5.52,5.52,0,0,1,3.77-5,8.32,8.32,0,0,1,5.57-.09,10,10,0,0,1,2.74,1.36.76.76,0,0,1,.27,1.07.73.73,0,0,1-1.09.16A8.39,8.39,0,0,0,19,12.18a6.42,6.42,0,0,0-4.93.58,3.81,3.81,0,0,0-2,2.93,7.43,7.43,0,0,0,2,6.15,4.81,4.81,0,0,0,2.18,1.29,18.55,18.55,0,0,1,2.43.89,5.37,5.37,0,0,1,2.7,3.24A4.59,4.59,0,0,1,21.62,29a2.64,2.64,0,0,1-1.87,2.22,7.38,7.38,0,0,1-1.81.19ZM15.38,30v0h2.36v0Z"/><path class="cls-2" d="M16.55,5.79a11.4,11.4,0,0,1,4.55.9A.75.75,0,0,1,21.39,8a.71.71,0,0,1-.76.13c-.42-.16-.83-.33-1.26-.45A9.14,9.14,0,0,0,13,8a9,9,0,0,0-4.68,4.79,8.33,8.33,0,0,0-.59,4.1,13.64,13.64,0,0,0,3.17,7.32c.32.4.67.77,1,1.14a.74.74,0,1,1-1.06,1,16.51,16.51,0,0,1-4.14-6.9,10.91,10.91,0,0,1,0-6.57,10.21,10.21,0,0,1,3-4.55A10.09,10.09,0,0,1,14.39,6,9.19,9.19,0,0,1,16.55,5.79Z"/><path class="cls-3" d="M27.57,17.29a16.56,16.56,0,0,1-1,5.13,14.58,14.58,0,0,1-2,3.76c-.16.22-.3.47-.62.52a.71.71,0,0,1-.79-.32.74.74,0,0,1,.07-.88,12.13,12.13,0,0,0,1.72-2.9,15.17,15.17,0,0,0,1.18-4.88,11.5,11.5,0,0,0-.23-3.36.77.77,0,0,1,.6-.91.75.75,0,0,1,.85.58A14.84,14.84,0,0,1,27.57,17.29Z"/><path class="cls-4" d="M13.42,32.71a.59.59,0,0,1,.44-.13h6.72a.54.54,0,0,1,.33.06c.07.1.13.2.2.29a.72.72,0,0,1-.17,1l-.09,0c-.22,0-.44,0-.66,0H14c-.69,0-.92-.37-.66-1,0-.06,0-.11,0-.17h0C13.4,32.83,13.43,32.79,13.42,32.71Z"/><path class="cls-5" d="M19.52,38.08l0,.1c-.11,0-.11.08-.08.17h0a1.91,1.91,0,0,1-1.12.23H15.8a.74.74,0,0,1-.78-.8v-.2c.12,0,.15-.1.12-.21h0c.2.1.36-.09.56-.08a29,29,0,0,1,3.61.11l.05,0Z"/><path class="cls-6" d="M27.64,8.52a.48.48,0,0,1-.51-.33.46.46,0,0,1,.12-.58L29.3,5.86a1.35,1.35,0,0,1,.26-.15.47.47,0,0,1,.63.16.51.51,0,0,1,0,.68,11.42,11.42,0,0,1-1.05.91c-.35.32-.72.61-1.09.92A.51.51,0,0,1,27.64,8.52Z"/><path class="cls-6" d="M15.22,3.1a.71.71,0,0,1-.19.61.56.56,0,0,1-.89-.33c-.16-.84-.3-1.69-.45-2.53a1.16,1.16,0,0,1,0-.49.52.52,0,0,1,.93-.11,2.71,2.71,0,0,1,.27,1,12.51,12.51,0,0,0,.25,1.36A1.61,1.61,0,0,1,15.22,3.1Z"/><path class="cls-6" d="M20.48.61A14.13,14.13,0,0,1,20.26,2c-.06.41-.14.81-.21,1.22a.69.69,0,0,1-.28.48.53.53,0,0,1-.8-.28,1.63,1.63,0,0,1,0-.73L19.38.57a1,1,0,0,1,.07-.21.53.53,0,0,1,1,.25Z"/><path class="cls-6" d="M7.08,25.66a.52.52,0,0,1-.18.42c-.68.62-1.39,1.21-2.1,1.8a.57.57,0,0,1-.93-.25A.44.44,0,0,1,4,27.11c.71-.61,1.4-1.25,2.16-1.8a.55.55,0,0,1,.89.23A.41.41,0,0,1,7.08,25.66Z"/><path class="cls-6" d="M6.52,8.53a.55.55,0,0,1-.38-.16L4.22,6.78A1.34,1.34,0,0,1,4,6.58a.54.54,0,0,1,0-.76.51.51,0,0,1,.72-.05c.46.36.91.74,1.37,1.12l.82.71A.49.49,0,0,1,7,8.21.54.54,0,0,1,6.52,8.53Z"/><path class="cls-6" d="M32.58,10.64a.53.53,0,0,1,.58.42.5.5,0,0,1-.28.59c-.55.28-1.15.45-1.72.68-.31.12-.62.22-.94.31a.5.5,0,0,1-.69-.33.55.55,0,0,1,.35-.72c.83-.31,1.68-.57,2.5-.92A1,1,0,0,1,32.58,10.64Z"/><path class="cls-6" d="M33.16,22.51a.52.52,0,0,1-.69.52c-.89-.31-1.78-.64-2.66-1a.46.46,0,0,1-.29-.62A.45.45,0,0,1,30,21a1.25,1.25,0,0,1,.51.09c.71.33,1.46.54,2.19.82A.58.58,0,0,1,33.16,22.51Z"/><path class="cls-6" d="M24,5.41c-.53,0-.74-.36-.5-.8.44-.79.9-1.56,1.35-2.34A.59.59,0,0,1,25.64,2a.56.56,0,0,1,.17.77L24.5,5.12A.47.47,0,0,1,24,5.41Z"/><path class="cls-6" d="M4.07,21c.36,0,.5.11.57.42a.49.49,0,0,1-.35.62L1.84,23a.61.61,0,0,1-.67-.08A.54.54,0,0,1,1,22.37a.64.64,0,0,1,.46-.43l1.37-.5c.25-.09.49-.18.74-.29A1.15,1.15,0,0,1,4.07,21Z"/><path class="cls-6" d="M27.66,25.2a.56.56,0,0,1,.41.17L30,26.94a.7.7,0,0,1,.33.7.51.51,0,0,1-.71.36,1,1,0,0,1-.31-.19l-2-1.72a.52.52,0,0,1-.15-.62C27.22,25.24,27.43,25.2,27.66,25.2Z"/><path class="cls-6" d="M1.59,10.65a1.49,1.49,0,0,1,.21,0l2.48.91a.49.49,0,0,1,.37.59.54.54,0,0,1-.77.44c-.82-.29-1.64-.59-2.45-.9A.58.58,0,0,1,1,11.1.55.55,0,0,1,1.59,10.65Z"/><path class="cls-7" d="M10.71,4.89c0,.25-.06.42-.29.49a.56.56,0,0,1-.7-.21C9.36,4.57,9,4,8.67,3.38c-.11-.2-.23-.4-.32-.61A.51.51,0,0,1,8.55,2a.54.54,0,0,1,.74.23c.45.75.89,1.5,1.33,2.25A.65.65,0,0,1,10.71,4.89Z"/><path class="cls-8" d="M3.53,17.32a.27.27,0,0,1-.21.06H1.15a2.46,2.46,0,0,0-.6-.07c-.21,0-.3-.09-.39-.23s0-.46.1-.68H3.53c0,.07,0,.15.07.19s.13.29.08.45S3.53,17.2,3.53,17.32Z"/><path class="cls-8" d="M32.06,17.37H30.81a.37.37,0,0,1-.35-.17v-.67h0c.17,0,.27-.15.45-.15.89,0,1.77,0,2.65,0q.48,0,.48.45c0,.29-.16.45-.48.44A14.89,14.89,0,0,0,32.06,17.37Z"/><path class="cls-9" d="M26.05,11.15a.75.75,0,0,1-.46.68.73.73,0,0,1-.85-.23c-.13-.18-.27-.37-.39-.57a.73.73,0,0,1,1.2-.84A1.66,1.66,0,0,1,26.05,11.15Z"/><path class="cls-10" d="M13.31,32.81c0,.06.06.11,0,.17-.26.62,0,1,.66,1h6.19c.22,0,.44,0,.66,0l.09,0a.72.72,0,0,0,.17-1c-.07-.09-.13-.19-.2-.29a.73.73,0,0,1,.4.84.72.72,0,0,1-.73.59H13.9a.73.73,0,0,1-.72-.44A.7.7,0,0,1,13.31,32.81Z"/><path class="cls-11" d="M13.38,35.06a.64.64,0,0,1,.46-.15h6.79a.68.68,0,0,1,.68.51.78.78,0,0,1-.35.87v0c0-.12.08-.18.14-.25s.26-.38.14-.56S21,35,20.63,35c-2.19,0-4.38,0-6.57,0a1.31,1.31,0,0,0-.65.1Z"/><path class="cls-12" d="M13.38,35.06l0,0a.72.72,0,0,0-.08.88c.14.3.38.32.66.32h6.57a1,1,0,0,0,.39,0v0a.79.79,0,0,1-.45.09H13.88a.74.74,0,0,1-.73-.49A.75.75,0,0,1,13.38,35.06Z"/><path class="cls-13" d="M32.06,17.37a14.89,14.89,0,0,1,1.49-.09c.32,0,.48-.15.48-.44s-.16-.45-.48-.45c-.88,0-1.76,0-2.65,0-.18,0-.28.14-.45.15.05-.21.22-.22.37-.22h2.84a.45.45,0,0,1,.5.52.51.51,0,0,1-.52.54Z"/><path class="cls-4" d="M19.32,37.39a29,29,0,0,0-3.61-.11c-.2,0-.36.18-.56.08a.56.56,0,0,1,.46-.18h3.16A.64.64,0,0,1,19.32,37.39Z"/><path class="cls-14" d="M15,37.58v.2a.74.74,0,0,0,.78.8h2.48a1.91,1.91,0,0,0,1.12-.23.63.63,0,0,1-.56.31c-1.07,0-2.15,0-3.22,0A.73.73,0,0,1,15,37.52Z"/><path class="cls-13" d="M3.54,16.39H.29a.33.33,0,0,1,.27-.08H3.27C3.36,16.3,3.47,16.28,3.54,16.39Z"/><path class="cls-13" d="M.26,16.39c-.06.22-.26.42-.1.68s.18.26.39.23a2.46,2.46,0,0,1,.6.07H.41c-.24,0-.36-.15-.4-.42A.47.47,0,0,1,.26,16.39Z"/><path class="cls-13" d="M3.53,17.32c0-.12.12-.19.15-.29s.16-.34-.08-.45-.06-.12-.07-.19a.36.36,0,0,1,.31.41A.48.48,0,0,1,3.53,17.32Z"/><path class="cls-14" d="M19.52,38.08l-.15-.64A.65.65,0,0,1,19.52,38.08Z"/><path class="cls-13" d="M30.45,16.53v.67A.59.59,0,0,1,30.45,16.53Z"/><path class="cls-4" d="M15,37.58v-.06a.24.24,0,0,1,.13-.15C15.17,37.48,15.14,37.56,15,37.58Z"/><path class="cls-14" d="M19.4,38.35c0-.09,0-.16.08-.17A.23.23,0,0,1,19.4,38.35Z"/><path class="cls-10" d="M13.42,32.71c0,.08,0,.12-.1.1A.17.17,0,0,1,13.42,32.71Z"/><path class="cls-13" d="M15.38,30h2.35v0H15.37Z"/><path class="cls-5" d="M21,36.27a1,1,0,0,1-.39,0H14c-.28,0-.52,0-.66-.32a.72.72,0,0,1,.08-.88,1.31,1.31,0,0,1,.65-.1c2.19,0,4.38,0,6.57,0,.38,0,.46.26.6.46s0,.39-.14.56S20.94,36.15,21,36.27Z"/></g></g></svg>