<svg xmlns="http://www.w3.org/2000/svg" viewBox="0 0 36.57 47.26"><defs><style>.cls-1{fill:#030303;}.cls-2{fill:#535353;}.cls-3{fill:#b30202;}.cls-4{fill:#020202;}.cls-5{fill:#050505;}.cls-6{fill:#040404;}.cls-7{fill:#b7050d;}.cls-8{fill:#a2201c;}</style></defs><title>Technex</title><g id="Layer_2" data-name="Layer 2"><g id="Layer_1-2" data-name="Layer 1"><path class="cls-1" d="M7.13,30.93c-1.26,0-2.51-.05-3.76-.12a2.8,2.8,0,0,1-2.26-2C.84,27.47.49,26.2.27,24.9a25.8,25.8,0,0,1-.09-6.8,3.05,3.05,0,0,1,.91-2c.45-.46.92-.91,1.32-1.41a2.09,2.09,0,0,1,2-.76c1.38.1,2.76.18,4.14.32.38,0,.75,0,1.13,0a5.45,5.45,0,0,1,2.31.62,22.83,22.83,0,0,0,4.57,1.42c2.34.67,4.65.2,7-.16a4.49,4.49,0,0,0,1.65-.63,6.4,6.4,0,0,1,3.53-.9c1.6,0,3.2-.13,4.79-.12a.65.65,0,0,1,.58.28c.78,1,1.5,2,2.21,3a3,3,0,0,1,.29,1.72A34.2,34.2,0,0,1,36,26.93c-.1.6-.14,1.21-.19,1.81a1.56,1.56,0,0,1-.16.57,3.05,3.05,0,0,1-2.32,1.25c-1.43,0-2.86,0-4.3,0a14.47,14.47,0,0,1-3.94-.23,2.27,2.27,0,0,1-.83-.43.69.69,0,0,1-.29-.6c.12-1,0-2.05.13-3.08.14-.81.26-1.62.38-2.44,0-.21.17-.19.32-.21a16.59,16.59,0,0,1,2.23,0l.49,0c.33,0,.86-.11.94,0a2.79,2.79,0,0,1,.17,1.14c.07,1.07.14,2.14.19,3.21,0,.26.09.33.34.33a31.65,31.65,0,0,0,3.51-.09c.23,0,.32-.09.35-.36.2-1.61.47-3.22.55-4.84.06-1.12,0-2.24.06-3.35,0-.66,0-1.31,0-2,0-.25-.11-.3-.33-.3a26,26,0,0,0-7.76.92c-1.27.42-2.51.91-3.8,1.26-.44.13-1.05,0-1.3.41a3.59,3.59,0,0,0-.28,1.39,49.91,49.91,0,0,0-.58,6.69,60.23,60.23,0,0,0,.3,7.1,18.45,18.45,0,0,1-.29,4.13c-.07.51-.12,1-.18,1.52,0,.17,0,.28.21.31a11.17,11.17,0,0,1,2.87,1.27,10.24,10.24,0,0,0,4.82,1.28A11.92,11.92,0,0,0,31,42.85a1.62,1.62,0,0,0,1.11-1.45,25.3,25.3,0,0,0,.67-3.84,19.36,19.36,0,0,0,0-2.41c0-.23-.14-.25-.32-.28a29.41,29.41,0,0,0-4.09-.1,16.14,16.14,0,0,1-3.53-.42c-.31-.06-.31-.57,0-.89a4.36,4.36,0,0,1,2.51-1.27,16,16,0,0,1,5.07-.2l1.23.1a2,2,0,0,1,1.76,1.56,34.87,34.87,0,0,1-.12,8.66c-.26,1.74-1.4,2.54-2.76,3.2-.93.45-1.91.82-2.88,1.18a8.58,8.58,0,0,1-5.66.17,30.36,30.36,0,0,1-3.2-1.26,4.78,4.78,0,0,0-4.08.13A15.06,15.06,0,0,1,12.57,47a8.77,8.77,0,0,1-4.19-.38c-1.29-.45-2.51-1.06-3.79-1.55a5.81,5.81,0,0,1-1.75-1.2,3,3,0,0,1-.71-2.1c-.17-1.52-.38-3-.44-4.57a32.86,32.86,0,0,1,.05-3.44,1.75,1.75,0,0,1,1.77-1.6,40.82,40.82,0,0,1,4.69-.08,11.89,11.89,0,0,1,2.9.61,2.05,2.05,0,0,1,1.49,1.38c.09.34.06.57-.31.69a7.37,7.37,0,0,1-2.33.36c-1.57,0-3.15-.14-4.73,0l-.09,0c-1.08,0-1,0-1,1.15a23.87,23.87,0,0,0,1.22,5.93.55.55,0,0,0,.31.4c.85.36,1.68.77,2.53,1.12a7.11,7.11,0,0,0,4.6.24,16.89,16.89,0,0,0,4.6-2.33.59.59,0,0,0,.25-.55,40.64,40.64,0,0,0,.06-4.55c-.11-1.73,0-3.47,0-5.2,0-2.92.27-5.83,0-8.75a21.16,21.16,0,0,0-.41-2.73c0-.16,0-.31-.25-.39-1.44-.52-2.75-1.35-4.2-1.83-2.77-.93-5.54-1.89-8.54-1.59-.41.05-.82.13-1.22.2-.24,0-.3.19-.35.41a18.65,18.65,0,0,0-.47,4.4,19.64,19.64,0,0,0,.46,4.32c.26,1.08.56,2.16.83,3.24,0,.16.16.19.29.21a12.8,12.8,0,0,0,4.23.25c.21,0,.3-.08.33-.32a33.53,33.53,0,0,0,.23-3.88c0-.51.05-1,.06-1.53,0-.23.11-.21.28-.22a27.59,27.59,0,0,1,3.15,0c.49,0,1,.28,1.45.29.17,0,.15.24.17.38a15.74,15.74,0,0,1,0,5.39,1.6,1.6,0,0,1-1.42,1.37A19.42,19.42,0,0,1,8,30.92Z"/><path class="cls-2" d="M7.38,38.17c.94.13,1.81.36,2.72.42a6,6,0,0,0,3.21-.77c.33-.18.61-.46.95-.62a.92.92,0,0,0,.53-.91c.1-2.54.44-5.05.77-7.57a18.18,18.18,0,0,0-.53-7,.63.63,0,0,0-.38-.46,18.21,18.21,0,0,0-4-1.5,14.46,14.46,0,0,0-3.14-.29c-.25,0-.29.08-.26.32a47.5,47.5,0,0,1,.25,6.31c0,.36.17.83-.09,1s-.66,0-1,0a18.23,18.23,0,0,1-1.95-.25.61.61,0,0,1-.54-.54,24.79,24.79,0,0,1-.62-4.29,30.7,30.7,0,0,1,0-3.46,2.05,2.05,0,0,1,2.09-2,20.19,20.19,0,0,1,8.16,1.9,13.33,13.33,0,0,1,1.48.7,2.84,2.84,0,0,1,1.5,1.92A25.07,25.07,0,0,1,17,28.4c-.13,2.27-.27,4.55-.37,6.82a11.78,11.78,0,0,0,.11,2,6.08,6.08,0,0,1-.16,2.21,2.16,2.16,0,0,1-.85,1.19,8.62,8.62,0,0,1-5.25,1.89,7.06,7.06,0,0,1-1.7-.25.43.43,0,0,1-.31-.34Z"/><path class="cls-3" d="M13.72,14.55a17.91,17.91,0,0,1-2.42-1c-.23-.07-.18-.27-.19-.45A8.27,8.27,0,0,1,12.7,8.09a5.93,5.93,0,0,1,6.13-2.63A10.32,10.32,0,0,1,21.59,6a6.5,6.5,0,0,1,4,5.05,10.05,10.05,0,0,1,.12,2.51c0,.16,0,.3-.19.37A10.44,10.44,0,0,1,22.92,15a31.82,31.82,0,0,1-5.15.47,1,1,0,0,1-.57-.12c0-.27-.42-.11-.41-.39.15,0,.32,0,.29-.23s-.17-.15-.3-.17c-.31,0-.41.11-.37.4h0c-.22,0-.52,0-.65-.18a.79.79,0,0,0-.81-.2.62.62,0,0,1-.54-.11C14.18,14.29,13.9,14.2,13.72,14.55Z"/><path class="cls-2" d="M27.4,21.37a16.67,16.67,0,0,0-3.95.46.59.59,0,0,0-.51.49,24,24,0,0,0-.26,12.08,3,3,0,0,1,.15.92c-.06.66.27.92.83,1.18a9.62,9.62,0,0,0,5.09.93c.58,0,.57,0,.47.56a25.47,25.47,0,0,1-.84,3,.64.64,0,0,1-.73.49,10.67,10.67,0,0,1-3.49-.6,20.47,20.47,0,0,1-2.31-1.12,1.9,1.9,0,0,1-1.05-2.1,18.56,18.56,0,0,0-.18-4.53,34.62,34.62,0,0,1-.08-7.41,28.33,28.33,0,0,1,.77-4.27A2,2,0,0,1,22.64,20,28.69,28.69,0,0,1,28,18.48c1.06-.13,2.13-.2,3.2-.23a1.55,1.55,0,0,1,1.48,1.66c0,1.92-.06,3.83-.28,5.73,0,.28-.09.42-.43.43-.66,0-1.32.08-2,.1-.35,0-.44-.11-.45-.44-.05-1.33-.13-2.67-.17-4,0-.29-.1-.37-.37-.36Z"/><path class="cls-4" d="M26.83,12.06c-.14-.64-.28-1.25-.4-1.86a7,7,0,0,0-1.1-2.68.54.54,0,0,1,0-.7,3.38,3.38,0,0,1,.9-1.05A33.75,33.75,0,0,0,30.51,2a1.76,1.76,0,0,1,1.93-.53,21.45,21.45,0,0,0,2.4.56.44.44,0,0,1,.38.37c.2,1.11.38,2.21.5,3.33,0,.14,0,.18-.16.16s-.23.11-.34.18l-4.65,3a5,5,0,0,0-1.05.9A7.83,7.83,0,0,1,26.83,12.06Z"/><path class="cls-1" d="M.94,5.9c.1-1,.2-2,.37-2.95,0-.23.14-.29.35-.32.72-.13,1.46-.26,2.17-.43a.52.52,0,0,1,.69.25A13.93,13.93,0,0,0,7.63,5.88a7.74,7.74,0,0,0,1.61,1A3.65,3.65,0,0,1,10.8,8c.1.13.2.23.07.43a9.75,9.75,0,0,0-1.2,3.47c-.07.39-.22.4-.51.24-2.57-1.4-5.32-2.53-7.29-4.83A3,3,0,0,0,1.2,6.6C.91,6.43.92,6.2.94,5.9Z"/><path class="cls-1" d="M14.05,4.76a.66.66,0,0,1-.38.77,12.56,12.56,0,0,0-1.1.82c-.18.15-.3.19-.51,0A33.5,33.5,0,0,1,6.74,1.45c-.08-.09-.24-.16-.18-.31S6.78,1,6.93,1C8.76.72,10.59.48,12.42.26c.2,0,.41-.09.49.22.31,1.21.85,2.36,1.06,3.6C14,4.3,14,4.53,14.05,4.76Z"/><path class="cls-5" d="M26.9,13.74c.09-.33.33-.41.54-.52A90.38,90.38,0,0,0,35.7,8.44s0,0,.11,0a12.71,12.71,0,0,1-.09,2.69c0,.71-.15,1.41-.17,2.12,0,.34-.13.41-.43.41q-3.48,0-6.94,0C27.77,13.66,27.36,13.71,26.9,13.74Z"/><path class="cls-1" d="M28.86.46a23.9,23.9,0,0,1-5.31,4.73.33.33,0,0,1-.39,0,7,7,0,0,0-1.53-.55c-.29-.08-.29-.19-.2-.45A17.37,17.37,0,0,1,22.7,1.73,12.66,12.66,0,0,0,23.35.46.64.64,0,0,1,24.06,0c1.51.12,3,.12,4.53.35C28.71.36,28.82.38,28.86.46Z"/><path class="cls-6" d="M15.32.18a22.37,22.37,0,0,1,3.75,0c.54.06,1.08.06,1.63.07.23,0,.36,0,.23.3C20.37,1.62,20,2.8,19.5,4c-.09.22-.24.18-.39.18A27.72,27.72,0,0,0,16,4.32c-.27,0-.25-.11-.25-.29A24,24,0,0,0,15.32.18Z"/><path class="cls-5" d="M9.45,13.54c-.56,0-1.13,0-1.69,0a27.23,27.23,0,0,0-6.12-.09c-.35.06-.4,0-.43-.4C1.11,11.77,1,10.49.83,9.22c0-.16,0-.33,0-.64C3.28,11.13,6.35,12.35,9.45,13.54Z"/><path class="cls-7" d="M13.72,14.55c.18-.35.46-.26.69-.1a.62.62,0,0,0,.54.11.79.79,0,0,1,.81.2c.13.14.43.13.65.18,0,.2-.17.18-.3.19A9.07,9.07,0,0,1,13.72,14.55Z"/><path class="cls-8" d="M16.11,15.13c.13,0,.29,0,.3-.19h.38c0,.28.41.12.41.39A3.39,3.39,0,0,1,16.11,15.13Z"/><path class="cls-7" d="M16.79,14.94h-.38c0-.29.06-.44.37-.4.13,0,.28,0,.3.17S16.94,14.93,16.79,14.94Z"/></g></g></svg>