<svg xmlns="http://www.w3.org/2000/svg" viewBox="0 0 334.35 173.9"><defs><style>.cls-1{fill:#fff;}</style></defs><title>Asset 1</title><g id="Layer_2" data-name="Layer 2"><g id="Layer_1-2" data-name="Layer 1"><path d="M61.54,2.81C52.39,27.51,44,50.08,35.68,72.7c-2.8,7.66-5.86,15.3-7.75,23.2s1,10.28,8.94,8.14c4.75-1.29,9.45-2.79,15-4.44v74.3c-14.81-8-24-19.87-30.64-33.54C3.93,104.63-3.51,67,1.57,27.27,4.18,6.9,13.13-.72,33.81.05,41.91.36,50,1.62,61.54,2.81ZM9.24,28.53C25.07,40.11,36,40,48.66,28.39,37.9,15.6,21.16,15.5,9.24,28.53Z"/><path d="M194,103.48c4.3,1.67,8.47,4,12.92,4.84,6,1.18,9.37-1.55,9.1-8.21-.27-6.41-.23-12.85,0-19.27s-3.29-7.68-8.86-7.71c-6,0-8.42,2.12-8.35,8.22.09,7.43-1.12,15.21,10.37,14.17.71-.06,1.56,1.33,2.51,2.19-12.61,5.36-19,1.57-19-11,0-4.35-.9-9.4.94-12.91C198.1,65.21,207.05,68,214.05,69c3,.42,7.08,6,7.61,9.63,1.16,8,.39,16.3.35,24.48,0,6.38-3.56,9.83-9.65,10.12-4.61.22-9.52.29-13.79-1.11-2.66-.87-4.37-4.62-6.51-7.07Z"/><path d="M126.64,64.58c-3.85,11.51-7.53,23.09-11.69,34.5-.78,2.13-3.48,3.57-5.29,5.32-.31-2.52-1.49-5.32-.8-7.54,3.63-11.64,7.47-23.24,11.88-34.6,1-2.56,4.57-5.67,7-5.7S134,59.5,135,62c4.57,11.92,8.49,24.09,12.33,36.27.55,1.72-.58,4-.93,6-1.77-1.35-4.51-2.36-5.16-4.13-4.37-11.86-8.3-23.88-12.37-35.85Z"/><path d="M280.72,84.7l12.15-1.43c-.46-2.9-.1-7.6-1.52-8.21a20.87,20.87,0,0,0-11.66-1.17c-1.6.3-3,4.34-3.53,6.88a22.7,22.7,0,0,0,0,9.57c.81,3.21,2.66,8.47,4.47,8.65,4,.39,8.22-1.78,12.29-3.09a43.47,43.47,0,0,0,5.29-2.44c-.06,2.17.74,5-.32,6.38-5.34,7.09-13.23,5-20.25,4.29-6.36-.66-8.18-5.73-7.91-11.65.12-2.62,0-5.25,0-7.88,0-14.61,2-16.47,16.84-16.24,10.87.18,15.5,6.24,12.56,16.63-.35,1.25-1.43,3.23-2.25,3.27-5.43.3-10.88.15-16.32.15Z"/><path d="M257.29,104.91c-.91-2.37-2.44-4.71-2.62-7.14a136.72,136.72,0,0,1-.09-16.57c.29-6.18-2.64-8.07-8.46-8.07s-8.82,1.48-8.39,7.9a120.86,120.86,0,0,1-.09,17.44c-.17,2-2.18,3.94-3.35,5.9-1-1.8-2.69-3.57-2.78-5.42a206,206,0,0,1,0-20.94c.13-2.36,1.48-6.38,2.86-6.65,6.6-1.3,13.55-2.73,20.08-1.88,6.38.82,6.46,7.18,6.36,12.64-.12,7.22,0,14.44,0,21.66Z"/><path d="M183.56,68.85c0,9.25.14,18.51-.12,27.76-.06,1.77-1.52,4.88-2.65,5-6.93.94-14.19,2.39-20.83,1.09-2.59-.51-4.81-7.6-5.48-12-.92-6-.42-12.21,0-18.3.09-1.38,2.19-2.63,3.37-3.93.93,1.27,2.61,2.51,2.66,3.82.3,6.69.39,13.41.15,20.09-.22,6.1,3.15,7.33,8.26,7.31,4.91,0,8.73-.79,8.54-7-.18-5.82-.29-11.67.11-17.47.17-2.5,1.7-4.91,2.61-7.36Z"/><path d="M315.05,86.28,304.41,70.21c4.28-.95,5.11-.38,14.88,9.2q5.65-6,11.32-12l2.85,2.29c-1.73,3-3,6.48-5.31,8.94-5,5.3-4.81,9.86.2,15,2.36,2.4,4,5.53,6,8.44-5,2.26-5,2.26-15.35-10-2.67,3.54-5,7.06-7.82,10.12-1.1,1.19-3.34,1.31-5.07,1.93.09-1.8-.43-4,.38-5.31C309,94.53,312,90.59,315.05,86.28Z"/><path class="cls-1" d="M9.24,28.53c11.92-13,28.66-12.93,39.42-.14C36,40,25.07,40.11,9.24,28.53Zm30.28-1.2c-4.94-3.16-7.9-6.56-10.42-6.26s-4.81,4.21-7.19,6.54c2.56,2.48,4.86,6.42,7.77,7C31.86,35,34.85,31,39.52,27.33Z"/><path d="M39.52,27.33C34.85,31,31.86,35,29.68,34.56c-2.91-.53-5.21-4.47-7.77-7,2.38-2.33,4.57-6.22,7.19-6.54S34.58,24.17,39.52,27.33Z"/></g></g></svg>